<svg width="388" height="260" fill="none" xmlns="http://www.w3.org/2000/svg"><path d="M39 188.163c78.439-8.285 250.453-19.885 311 0" stroke="#000"/><path fill-rule="evenodd" clip-rule="evenodd" d="M254.988 106.075a41.325 41.325 0 0 0 9.554-26.494c0-22.88-18.5-41.427-41.322-41.427-16.729 0-31.137 9.967-37.637 24.301 6.123 6.783 12.123 17.893 17.441 30.085 3.04 6.97 5.858 14.295 8.347 21.368.669-1.989 1.59-4.464 2.715-7.166 4.053-9.737 10.751-22.425 17.833-25.976 3.689-1.849 12.563 9.14 23.069 25.309Z" fill="#000"/><path d="M75.102 182.058c8.7.698 10.874-7.559 10.874-11.774.145-11.338-1.827-32.531-10.874-26.601-9.047 5.931-11.019 20.205-10.874 26.601 0 3.634 2.175 11.076 10.874 11.774Zm0 0v5.669m0-5.669v-7.849M159.485 176.688c6.955.554 8.694-5.997 8.694-9.341.116-8.995-1.461-25.809-8.694-21.104-7.233 4.705-8.809 16.03-8.693 21.104 0 2.883 1.739 8.788 8.693 9.341Zm0 0v4.498m0-4.498v-6.227M194.283 176.375c3.477.27 4.346-2.925 4.346-4.556.058-4.388-.73-12.59-4.346-10.295-3.617 2.295-4.405 7.82-4.347 10.295 0 1.406.869 4.286 4.347 4.556Zm0 0v2.194m0-2.194v-3.037M229.08 175.278c4.868.405 6.085-4.388 6.085-6.835.081-6.582-1.022-18.885-6.085-15.442-5.063 3.443-6.167 11.729-6.086 15.442 0 2.11 1.217 6.43 6.086 6.835Zm0 0v3.291m0-3.291v-4.556M311.288 178.542c6.607.54 8.259-5.851 8.259-9.113.11-8.776-1.387-25.18-8.259-20.59-6.871 4.591-8.369 15.639-8.259 20.59 0 2.812 1.652 8.573 8.259 9.113Zm0 0v4.388m0-4.388v-6.076M91.196 49.056c-23.488 6.977-10.004 23.984 0 23.984 20.688 0 56.545 2.616 61.765-3.925 4.124-5.169-3.77-9.594-6.96-10.466-.435-9.593-11.744-10.466-15.224-7.85-.58-4.796-4.697-15.175-16.528-18.314-11.831-3.14-20.298 9.739-23.053 16.57ZM80.177 112.11c-9.146 2.782-3.896 9.564 0 9.564 8.055 0 22.016 1.043 24.049-1.565 1.605-2.061-1.468-3.826-2.71-4.173-.17-3.826-4.573-4.174-5.928-3.13-.225-1.913-1.829-6.052-6.435-7.304-4.607-1.252-7.904 3.884-8.976 6.608ZM276.41 71.367c-13.18 3.953-5.613 13.59 0 13.59 11.609 0 31.73 1.483 34.659-2.224 2.314-2.928-2.115-5.436-3.905-5.93-.244-5.436-6.59-5.93-8.543-4.448-.325-2.718-2.636-8.599-9.275-10.378-6.639-1.78-11.39 5.518-12.936 9.39ZM324.627 128.681c-9.145 2.782-3.895 9.564 0 9.564 8.055 0 22.017 1.043 24.049-1.565 1.606-2.061-1.468-3.826-2.71-4.174-.169-3.825-4.572-4.173-5.927-3.13-.226-1.912-1.829-6.051-6.436-7.303-4.606-1.252-7.903 3.884-8.976 6.608ZM89.02 186.854c12.349-24.664 34.673-66.653 53.851-96.372m75.769 46.224c-1.83-6.496-4.235-14.205-7.064-22.24m0 0c-2.49-7.072-5.307-14.397-8.347-21.367m8.347 21.367a111.91 111.91 0 0 1 2.715-7.165m86.123 79.118c-9.801-19.051-25.26-47.629-39.172-70.208M142.871 90.482c10.321-15.993 19.731-28.433 26.183-32.705 11.268-7.46 23.976 11.939 34.175 35.322m-60.358-2.617c.753 5.524 1.564 28.258 12.699 29.653 4.785 0 13.919-16.745 20.879-20.931 6.959-4.186 6.089 5.378 7.829 13.082 1.18 4.07 6.622 5.931 18.951-19.187m11.062 14.202c4.053-9.737 10.751-22.426 17.833-25.976 4.379-2.195 16.068 13.706 29.118 34.886m-46.951-8.91c2.754 6.458 18.181 22.428 21.313 22.428 3.132 0 3.625-4.797 4.785-9.594 1.898-7.849 6.611-15.96 12.179 2.181 5.567 18.14 5.203 2.762 8.674-6.105" stroke="#000"/><path d="M109.736 220.254c-.224.064-.4.024-.528-.12a.665.665 0 0 1-.216-.48c0-.288.136-.464.408-.528.448-.128.848-.264 1.2-.408a8.308 8.308 0 0 1 1.248-.384 4.24 4.24 0 0 1 .408-.888c.16-.272.328-.544.504-.816.192-.272.368-.584.528-.936.512-1.088.936-2.12 1.272-3.096.336-.992.64-1.928.912-2.808.272-.88.576-1.696.912-2.448-.56.032-1.064.088-1.512.168-.448.064-.944.2-1.488.408a.79.79 0 0 1-.24.048.523.523 0 0 1-.408-.192.702.702 0 0 1-.144-.432c0-.112.024-.216.072-.312a.576.576 0 0 1 .288-.216c.736-.288 1.416-.464 2.04-.528.624-.08 1.312-.136 2.064-.168h.312c.096-.016.192-.024.288-.024.56 0 1.064.032 1.512.096.464.048.976.072 1.536.072.176 0 .296.04.36.12.08.064.12.136.12.216 0 .112-.056.232-.168.36-.112.112-.28.168-.504.168-.64-.016-1.16 0-1.56.048-.4.032-.856.064-1.368.096a51.356 51.356 0 0 0-1.152 2.712c-.368.976-.736 1.96-1.104 2.952-.368.992-.72 1.944-1.056 2.856a38.549 38.549 0 0 1-.984 2.4c.496 0 .96.04 1.392.12.448.08.904.152 1.368.216.176.016.304.072.384.168.08.096.12.2.12.312 0 .128-.056.24-.168.336-.112.096-.272.136-.48.12-.352-.048-.68-.088-.984-.12a8.266 8.266 0 0 0-1.536-.024c-.208.016-.424.04-.648.072a.617.617 0 0 1-.528.264.525.525 0 0 1-.336-.096c-.336.096-.664.2-.984.312a9.639 9.639 0 0 1-1.152.384Zm21.934-.072c-.4 0-.68-.152-.84-.456-.144-.304-.216-.672-.216-1.104 0-.56.088-1.144.264-1.752.176-.624.352-1.136.528-1.536.4-.896.6-1.488.6-1.776 0-.224-.104-.336-.312-.336h-.168a.387.387 0 0 0-.168.048c-.448.128-.968.384-1.56.768-.576.384-1.152.816-1.728 1.296-.576.48-1.072.952-1.488 1.416a5.448 5.448 0 0 0-.624.888c-.192.336-.344.568-.456.696-.176.208-.384.312-.624.312a.639.639 0 0 1-.432-.168c-.112-.128-.144-.32-.096-.576.128-.752.216-1.224.264-1.416.048-.208.08-.312.096-.312v-.24c0-.384-.024-.744-.072-1.08-.032-.352-.112-.624-.24-.816-.112-.192-.288-.248-.528-.168-.432.128-.928.384-1.488.768-.56.384-1.112.816-1.656 1.296-.544.48-1.008.928-1.392 1.344-.4.448-.656.816-.768 1.104l-.144.432c-.144.16-.28.24-.408.24-.304 0-.456-.272-.456-.816 0-.48.088-1.024.264-1.632.176-.608.392-1.208.648-1.8.272-.608.52-1.136.744-1.584.144-.256.344-.384.6-.384.176 0 .32.064.432.192.128.128.176.304.144.528 0 .096-.096.288-.288.576a8.828 8.828 0 0 0-.6 1.008c-.192.384-.312.8-.36 1.248.176-.272.328-.464.456-.576.144-.128.32-.296.528-.504.448-.448.832-.8 1.152-1.056a7.35 7.35 0 0 1 1.056-.672c.368-.192.824-.408 1.368-.648.144-.08.296-.144.456-.192.16-.048.32-.072.48-.072.256 0 .488.096.696.288.208.176.376.496.504.96.144.464.208 1.136.192 2.016.224-.176.416-.352.576-.528.176-.192.368-.392.576-.6.464-.464.872-.84 1.224-1.128a7.766 7.766 0 0 1 1.152-.792c.416-.24.912-.488 1.488-.744.176-.08.384-.152.624-.216.24-.08.472-.12.696-.12.272 0 .512.08.72.24.208.16.312.456.312.888 0 .288-.056.648-.168 1.08-.096.416-.28.928-.552 1.536-.24.56-.448 1.16-.624 1.8a18.21 18.21 0 0 0-.336 1.584c.176.256.264.536.264.84a.55.55 0 0 1-.072.288c-.048.08-.128.12-.24.12Zm5.429-.864a3.22 3.22 0 0 1-1.32-.288 2.831 2.831 0 0 1-1.032-.792 1.78 1.78 0 0 1-.408-1.152c0-.64.168-1.2.504-1.68.336-.48.76-.888 1.272-1.224a7.022 7.022 0 0 1 1.608-.768 5.435 5.435 0 0 1 1.728-.264c.656 0 1.288.12 1.896.36.624.224 1.064.616 1.32 1.176.128-.416.224-.824.288-1.224.064-.416.096-.776.096-1.08 0-.512-.104-.904-.312-1.176-.192-.272-.544-.408-1.056-.408-.208 0-.448.08-.72.24a3.685 3.685 0 0 0-.792.576c-.096.096-.168.16-.216.192-.032.032-.12.048-.264.048a.48.48 0 0 1-.384-.168.69.69 0 0 1 .096-.888l.48-.48c.176-.176.4-.328.672-.456.288-.144.648-.216 1.08-.216.896 0 1.552.208 1.968.624.416.416.624 1.096.624 2.04 0 .464-.064.944-.192 1.44a29.195 29.195 0 0 1-.408 1.584c-.096.352-.232.752-.408 1.2-.16.432-.368.864-.624 1.296-.256.432-.568.8-.936 1.104a.555.555 0 0 1-.768-.024.529.529 0 0 1-.168-.384c0-.144.072-.288.216-.432.176-.144.36-.376.552-.696.208-.32.4-.72.576-1.2-.048-.656-.36-1.136-.936-1.44a3.86 3.86 0 0 0-1.872-.456c-.4 0-.784.048-1.152.144-.4.112-.8.304-1.2.576-.4.256-.736.56-1.008.912-.256.352-.384.72-.384 1.104 0 .304.152.576.456.816.32.24.696.36 1.128.36.368 0 .656-.008.864-.024.224-.016.432-.064.624-.144.208-.096.472-.264.792-.504.144-.096.264-.144.36-.144.128 0 .232.04.312.12.08.08.12.184.12.312 0 .176-.088.328-.264.456-.544.448-1.024.736-1.44.864-.4.112-.856.168-1.368.168Zm12.106 7.32c-.208 0-.416-.016-.624-.048a7.37 7.37 0 0 1-.576-.12c-.336-.096-.584-.272-.744-.528a1.596 1.596 0 0 1-.216-.792c0-.224.056-.4.168-.528a.555.555 0 0 1 .408-.168h.12l.144.048c.112.048.24.2.384.456.16.256.32.424.48.504a.624.624 0 0 0 .192.024c.272 0 .576-.12.912-.36.352-.24.616-.464.792-.672.688-.784 1.216-1.56 1.584-2.328.368-.768.656-1.512.864-2.232.224-.72.44-1.392.648-2.016-.352.32-.72.6-1.104.84a5.61 5.61 0 0 1-1.392.552c-.528.144-1.224.264-2.088.36a2.216 2.216 0 0 1-.312.024h-.288c-.752 0-1.384-.144-1.896-.432-.512-.304-.896-.688-1.152-1.152a3.033 3.033 0 0 1-.384-1.488c0-.784.256-1.504.768-2.16.304-.384.688-.792 1.152-1.224.464-.448 1-.864 1.608-1.248a9.335 9.335 0 0 1 2.064-.936 7.339 7.339 0 0 1 2.472-.312c.448 0 .768.08.96.24a.884.884 0 0 1 .384.552c.064.208.096.424.096.648-.016.24-.112.36-.288.36-.144 0-.32-.056-.528-.168a5.663 5.663 0 0 0-.696-.312 6.097 6.097 0 0 0-2.64.384 8.762 8.762 0 0 0-2.184 1.224c-.624.48-1.112.96-1.464 1.44a2.178 2.178 0 0 0-.432 1.344c0 .384.096.76.288 1.128.208.352.52.64.936.864.416.208.936.288 1.56.24.768-.064 1.416-.208 1.944-.432a5.465 5.465 0 0 0 1.392-.84c.4-.336.768-.704 1.104-1.104.336-.4.696-.8 1.08-1.2a.488.488 0 0 1 .36-.144c.128 0 .248.056.36.168.112.096.168.24.168.432v.168a.387.387 0 0 1-.048.168l-.456 1.632a73.961 73.961 0 0 1-.672 2.208c-.24.784-.52 1.544-.84 2.28a15.043 15.043 0 0 1-1.224 2.208c-.464.72-.944 1.344-1.44 1.872h.024c-.176.208-.424.352-.744.432a3.251 3.251 0 0 1-.984.144Zm11.89-5.424c-.128 0-.28-.024-.456-.072-.976-.32-1.688-.848-2.136-1.584a4.572 4.572 0 0 1-.672-2.376v-.36c.016-.128.032-.248.048-.36.144-.912.448-1.72.912-2.424.48-.704 1.016-1.28 1.608-1.728.608-.464 1.16-.76 1.656-.888.32-.08.64-.144.96-.192.32-.064.632-.096.936-.096.768 0 1.424.168 1.968.504.544.336.816.888.816 1.656 0 .432-.136.824-.408 1.176a3.595 3.595 0 0 1-.984.912c-.384.24-.76.432-1.128.576-.56.224-1.2.392-1.92.504-.704.112-1.368.168-1.992.168-.4 0-.768-.024-1.104-.072v.024a.789.789 0 0 1-.024.192.532.532 0 0 0-.024.168.789.789 0 0 0-.024.192v.144c0 .496.096.936.288 1.32.208.368.448.688.72.96.272.256.496.464.672.624.288.144.488.28.6.408.128.144.192.256.192.336 0 .192-.168.288-.504.288Zm-.144-5.664c.48 0 .984-.032 1.512-.096a5.366 5.366 0 0 0 1.464-.432c.352-.176.68-.408.984-.696.304-.304.456-.664.456-1.08 0-.32-.128-.56-.384-.72-.256-.16-.616-.24-1.08-.24-.528 0-1.104.096-1.728.288-.224.064-.504.216-.84.456-.32.24-.648.568-.984.984-.336.4-.616.88-.84 1.44.192.016.408.04.648.072.256.016.52.024.792.024Zm13.317 10.464c-.256 0-.504-.104-.744-.312-.256-.208-.36-.536-.312-.984.032-.416.144-.976.336-1.68.192-.688.432-1.456.72-2.304.288-.848.608-1.72.96-2.616.352-.912.704-1.792 1.056-2.64.352-.864.688-1.64 1.008-2.328.32-.704.592-1.272.816-1.704.144-.256.344-.384.6-.384.16 0 .296.056.408.168.112.096.168.248.168.456 0 .128-.048.336-.144.624a2.587 2.587 0 0 1-.36.696 10.49 10.49 0 0 0-.72 1.08c-.256.416-.496.856-.72 1.32.832-1.168 1.704-2.08 2.616-2.736a9.498 9.498 0 0 1 2.976-1.44c.16-.048.312-.08.456-.096.144-.016.28-.024.408-.024.656 0 1.12.224 1.392.672.288.448.432.928.432 1.44 0 .56-.12 1.024-.36 1.392-.432.88-.936 1.608-1.512 2.184a8.621 8.621 0 0 1-1.872 1.392c-.656.352-1.344.68-2.064.984-.352.16-.664.272-.936.336-.256.048-.48.072-.672.072-.288 0-.488-.064-.6-.192a.639.639 0 0 1-.168-.432c0-.224.064-.432.192-.624s.248-.272.36-.24c.112.016.248.04.408.072.16.032.328.048.504.048.416 0 .768-.072 1.056-.216.464-.24.944-.512 1.44-.816a7.614 7.614 0 0 0 1.488-1.176c.496-.496.928-1.128 1.296-1.896.096-.272.144-.536.144-.792 0-.272-.072-.504-.216-.696-.128-.192-.352-.288-.672-.288-.528 0-1.2.24-2.016.72-.816.464-1.672 1.12-2.568 1.968a20.257 20.257 0 0 0-2.544 2.952c-.352.896-.68 1.776-.984 2.64-.288.864-.52 1.632-.696 2.304-.176.688-.28 1.192-.312 1.512-.016.176.08.36.288.552.208.192.312.384.312.576 0 .128-.08.248-.24.36-.08.064-.216.096-.408.096Zm13.593-5.472c-.256 0-.512-.104-.768-.312-.24-.192-.344-.512-.312-.96.048-.416.16-.968.336-1.656.192-.704.432-1.48.72-2.328.304-.848.624-1.72.96-2.616.352-.912.704-1.792 1.056-2.64.352-.864.688-1.64 1.008-2.328.32-.704.592-1.272.816-1.704.144-.256.344-.384.6-.384.144 0 .272.056.384.168.112.096.168.24.168.432 0 .064-.024.2-.072.408a3.524 3.524 0 0 1-.168.648 2.647 2.647 0 0 1-.216.552c-.16.256-.352.52-.576.792a4.675 4.675 0 0 0-.6.96 72 72 0 0 0-1.152 2.64 58.079 58.079 0 0 0-1.056 2.688c-.32.88-.584 1.672-.792 2.376-.192.704-.304 1.264-.336 1.68 0 .112.048.232.144.36.112.128.216.256.312.384.112.128.168.256.168.384s-.08.248-.24.36c-.08.064-.208.096-.384.096Zm6.262-1.224a3.22 3.22 0 0 1-1.32-.288 2.831 2.831 0 0 1-1.032-.792 1.78 1.78 0 0 1-.408-1.152c0-.64.168-1.2.504-1.68.336-.48.76-.888 1.272-1.224a7.022 7.022 0 0 1 1.608-.768 5.435 5.435 0 0 1 1.728-.264c.656 0 1.288.12 1.896.36.624.224 1.064.616 1.32 1.176.128-.416.224-.824.288-1.224.064-.416.096-.776.096-1.08 0-.512-.104-.904-.312-1.176-.192-.272-.544-.408-1.056-.408-.208 0-.448.08-.72.24a3.685 3.685 0 0 0-.792.576c-.096.096-.168.16-.216.192-.032.032-.12.048-.264.048a.48.48 0 0 1-.384-.168.69.69 0 0 1 .096-.888l.48-.48c.176-.176.4-.328.672-.456.288-.144.648-.216 1.08-.216.896 0 1.552.208 1.968.624.416.416.624 1.096.624 2.04 0 .464-.064.944-.192 1.44a29.195 29.195 0 0 1-.408 1.584c-.096.352-.232.752-.408 1.2-.16.432-.368.864-.624 1.296-.256.432-.568.8-.936 1.104a.555.555 0 0 1-.768-.024.529.529 0 0 1-.168-.384c0-.144.072-.288.216-.432.176-.144.36-.376.552-.696.208-.32.4-.72.576-1.2-.048-.656-.36-1.136-.936-1.44a3.86 3.86 0 0 0-1.872-.456c-.4 0-.784.048-1.152.144-.4.112-.8.304-1.2.576-.4.256-.736.56-1.008.912-.256.352-.384.72-.384 1.104 0 .304.152.576.456.816.32.24.696.36 1.128.36.368 0 .656-.008.864-.024.224-.016.432-.064.624-.144.208-.096.472-.264.792-.504.144-.096.264-.144.36-.144.128 0 .232.04.312.12.08.08.12.184.12.312 0 .176-.088.328-.264.456-.544.448-1.024.736-1.44.864-.4.112-.856.168-1.368.168Zm10.761 1.152c-.624 0-1.136-.144-1.536-.432a2.825 2.825 0 0 1-.912-1.08 3.443 3.443 0 0 1-.288-1.368c0-.528.12-1.04.36-1.536.24-.512.536-.992.888-1.44a16.53 16.53 0 0 1 1.032-1.2c.848-.88 1.64-1.528 2.376-1.944.752-.416 1.352-.624 1.8-.624.448 0 .784.072 1.008.216.224.144.376.32.456.528.096.208.152.4.168.576.032.288-.008.528-.12.72a.517.517 0 0 1-.456.264c-.176 0-.352-.08-.528-.24a2.845 2.845 0 0 1-.456-.528 14.36 14.36 0 0 0-1.08.288c-.304.08-.6.208-.888.384-.272.16-.592.4-.96.72a12.357 12.357 0 0 0-1.704 1.872c-.464.656-.696 1.36-.696 2.112 0 1.024.528 1.536 1.584 1.536.688 0 1.4-.176 2.136-.528a6.795 6.795 0 0 0 1.92-1.416.597.597 0 0 1 .432-.192c.128 0 .232.04.312.12.096.08.144.184.144.312a.5.5 0 0 1-.192.384c-.768.736-1.536 1.336-2.304 1.8a4.66 4.66 0 0 1-2.496.696Zm9.93.744c-.128 0-.28-.024-.456-.072-.976-.32-1.688-.848-2.136-1.584a4.572 4.572 0 0 1-.672-2.376v-.36c.016-.128.032-.248.048-.36.144-.912.448-1.72.912-2.424.48-.704 1.016-1.28 1.608-1.728.608-.464 1.16-.76 1.656-.888.32-.08.64-.144.96-.192.32-.064.632-.096.936-.096.768 0 1.424.168 1.968.504.544.336.816.888.816 1.656 0 .432-.136.824-.408 1.176a3.595 3.595 0 0 1-.984.912c-.384.24-.76.432-1.128.576-.56.224-1.2.392-1.92.504-.704.112-1.368.168-1.992.168-.4 0-.768-.024-1.104-.072v.024a.789.789 0 0 1-.024.192.532.532 0 0 0-.024.168.789.789 0 0 0-.024.192v.144c0 .496.096.936.288 1.32.208.368.448.688.72.96.272.256.496.464.672.624.288.144.488.28.6.408.128.144.192.256.192.336 0 .192-.168.288-.504.288Zm-.144-5.664c.48 0 .984-.032 1.512-.096a5.366 5.366 0 0 0 1.464-.432c.352-.176.68-.408.984-.696.304-.304.456-.664.456-1.08 0-.32-.128-.56-.384-.72-.256-.16-.616-.24-1.08-.24-.528 0-1.104.096-1.728.288-.224.064-.504.216-.84.456-.32.24-.648.568-.984.984-.336.4-.616.88-.84 1.44.192.016.408.04.648.072.256.016.52.024.792.024Zm13.301 4.872c-.352 0-.6-.152-.744-.456-.144-.304-.216-.664-.216-1.08 0-.512.08-1.064.24-1.656.16-.592.32-1.072.48-1.44.224-.528.4-.992.528-1.392.128-.4.192-.72.192-.96 0-.288-.088-.432-.264-.432-.112-.016-.344.056-.696.216s-.72.376-1.104.648c-.24.16-.56.4-.96.72-.4.304-.816.64-1.248 1.008-.432.368-.816.728-1.152 1.08-.448.464-.752.896-.912 1.296-.096.24-.256.36-.48.36a.434.434 0 0 1-.36-.192c-.096-.144-.128-.36-.096-.648.08-.528.232-1.176.456-1.944.24-.768.512-1.592.816-2.472.32-.896.656-1.784 1.008-2.664.352-.896.696-1.728 1.032-2.496.352-.768.664-1.408.936-1.92.144-.256.344-.384.6-.384.144 0 .272.056.384.168.112.096.168.24.168.432 0 .064-.024.2-.072.408a3.524 3.524 0 0 1-.168.648 1.972 1.972 0 0 1-.24.552c-.16.256-.352.52-.576.792a4.675 4.675 0 0 0-.6.96 50.572 50.572 0 0 0-.936 2.136c-.24.576-.432 1.088-.576 1.536-.128.448-.24.856-.336 1.224-.096.368-.2.752-.312 1.152.128-.208.248-.376.36-.504.112-.128.224-.248.336-.36.32-.32.704-.648 1.152-.984a21.42 21.42 0 0 1 1.392-.96c.496-.304.96-.544 1.392-.72.448-.192.808-.288 1.08-.288.304 0 .584.104.84.312.256.192.384.568.384 1.128 0 .32-.056.712-.168 1.176-.096.448-.28.976-.552 1.584a16.03 16.03 0 0 0-.6 1.752c-.16.608-.264 1.096-.312 1.464.16.24.24.504.24.792 0 .272-.112.408-.336.408Zm5.176-1.032h-.288l-.288-.048a2.077 2.077 0 0 1-1.536-.936 3.446 3.446 0 0 1-.528-1.872c0-.448.088-.92.264-1.416.192-.512.488-.976.888-1.392a4.64 4.64 0 0 1 1.392-1.032 3.651 3.651 0 0 1 1.608-.384c.272 0 .528.032.768.096.256.064.384.192.384.384 0 .128-.072.256-.216.384-.128.112-.304.144-.528.096a1.43 1.43 0 0 0-.312-.024c-.384 0-.776.104-1.176.312-.4.208-.76.488-1.08.84-.32.336-.552.712-.696 1.128a2.89 2.89 0 0 0-.168.96c0 .496.112.92.336 1.272.24.352.512.528.816.528.08.016.152.024.216.024h.216a3.86 3.86 0 0 0 2.016-.576c.656-.4 1.16-.832 1.512-1.296.176-.272.296-.512.36-.72a2.1 2.1 0 0 0 .096-.552c0-.32-.096-.536-.288-.648-.192-.112-.368-.16-.528-.144-.256.032-.504.072-.744.12-.24.032-.448.088-.624.168a.762.762 0 0 1-.216.048.523.523 0 0 1-.408-.192.668.668 0 0 1-.144-.408c0-.256.12-.424.36-.504.224-.08.488-.152.792-.216.304-.064.616-.112.936-.144a.705.705 0 0 1 .168-.024h.168c.576 0 1.024.176 1.344.528.32.336.48.752.48 1.248 0 .304-.072.632-.216.984a3.093 3.093 0 0 1-.696 1.008 7.182 7.182 0 0 1-1.104 1.104c-.448.368-.952.68-1.512.936-.56.24-1.168.36-1.824.36Zm7.917 1.152c-.256 0-.512-.104-.768-.312-.24-.192-.344-.512-.312-.96.048-.416.16-.968.336-1.656.192-.704.432-1.48.72-2.328.304-.848.624-1.72.96-2.616.352-.912.704-1.792 1.056-2.64.352-.864.688-1.64 1.008-2.328.32-.704.592-1.272.816-1.704.144-.256.344-.384.6-.384.144 0 .272.056.384.168.112.096.168.24.168.432 0 .064-.024.2-.072.408a3.524 3.524 0 0 1-.168.648 2.647 2.647 0 0 1-.216.552c-.16.256-.352.52-.576.792a4.675 4.675 0 0 0-.6.96 72 72 0 0 0-1.152 2.64 58.079 58.079 0 0 0-1.056 2.688c-.32.88-.584 1.672-.792 2.376-.192.704-.304 1.264-.336 1.68 0 .112.048.232.144.36.112.128.216.256.312.384.112.128.168.256.168.384s-.08.248-.24.36c-.08.064-.208.096-.384.096Zm7.942-.912c-.88 0-1.648-.152-2.304-.456-.64-.304-1.144-.696-1.512-1.176-.352-.496-.528-1.024-.528-1.584 0-.288.048-.584.144-.888.112-.304.28-.592.504-.864a13.48 13.48 0 0 1 1.08-1.2c.448-.432.952-.84 1.512-1.224a8.372 8.372 0 0 1 1.896-.936 6.28 6.28 0 0 1 2.208-.384c.576 0 .968.048 1.176.144.224.096.376.224.456.384.08.144.176.288.288.432.192-.608.416-1.248.672-1.92.256-.672.504-1.304.744-1.896.24-.592.432-1.072.576-1.44.096-.208.208-.456.336-.744.144-.304.264-.568.36-.792l.168-.36c.112-.272.32-.408.624-.408.224 0 .432.08.624.24.192.16.288.352.288.576 0 .16-.064.328-.192.504h-.024l-.216.24a6.254 6.254 0 0 0-.48.552 3.24 3.24 0 0 0-.36.624 56.87 56.87 0 0 1-.72 1.704c-.272.64-.552 1.344-.84 2.112a28.846 28.846 0 0 0-.768 2.352c-.208.784-.336 1.56-.384 2.328a.367.367 0 0 1-.168.264.592.592 0 0 1-.336.096.972.972 0 0 1-.48-.12c-.144-.096-.2-.224-.168-.384.08-.224.128-.448.144-.672.032-.24.048-.464.048-.672 0-.448-.072-.832-.216-1.152-.128-.336-.336-.544-.624-.624a1.688 1.688 0 0 0-.408-.096 3.909 3.909 0 0 0-.432-.024 3.75 3.75 0 0 0-1.56.36 6.93 6.93 0 0 0-1.512.888c-.464.352-.888.72-1.272 1.104a8.147 8.147 0 0 0-.912 1.056 1.626 1.626 0 0 0-.336.984c0 .416.2.816.6 1.2.4.368 1.088.592 2.064.672.08.016.16.024.24.024h.264c.656 0 1.336-.08 2.04-.24.72-.176 1.352-.376 1.896-.6a5.623 5.623 0 0 0 1.152-.624c.336-.24.632-.472.888-.696a.611.611 0 0 1 .408-.168c.144 0 .264.056.36.168a.432.432 0 0 1 .168.336c0 .16-.072.304-.216.432-.256.224-.584.496-.984.816a5.767 5.767 0 0 1-1.392.792c-.64.256-1.384.48-2.232.672-.848.192-1.632.288-2.352.288Zm11.698 1.584c-.128 0-.28-.024-.456-.072-.976-.32-1.688-.848-2.136-1.584a4.572 4.572 0 0 1-.672-2.376v-.36c.016-.128.032-.248.048-.36.144-.912.448-1.72.912-2.424.48-.704 1.016-1.28 1.608-1.728.608-.464 1.16-.76 1.656-.888.32-.08.64-.144.96-.192.32-.064.632-.096.936-.096.768 0 1.424.168 1.968.504.544.336.816.888.816 1.656 0 .432-.136.824-.408 1.176a3.595 3.595 0 0 1-.984.912c-.384.24-.76.432-1.128.576-.56.224-1.2.392-1.92.504-.704.112-1.368.168-1.992.168-.4 0-.768-.024-1.104-.072v.024a.789.789 0 0 1-.024.192.532.532 0 0 0-.024.168.789.789 0 0 0-.024.192v.144c0 .496.096.936.288 1.32.208.368.448.688.72.96.272.256.496.464.672.624.288.144.488.28.6.408.128.144.192.256.192.336 0 .192-.168.288-.504.288Zm-.144-5.664c.48 0 .984-.032 1.512-.096a5.366 5.366 0 0 0 1.464-.432c.352-.176.68-.408.984-.696.304-.304.456-.664.456-1.08 0-.32-.128-.56-.384-.72-.256-.16-.616-.24-1.08-.24-.528 0-1.104.096-1.728.288-.224.064-.504.216-.84.456-.32.24-.648.568-.984.984-.336.4-.616.88-.84 1.44.192.016.408.04.648.072.256.016.52.024.792.024Zm7.637 3.912a.611.611 0 0 1-.408-.168c-.112-.128-.168-.336-.168-.624v-.192l.048-.24c.144-.704.328-1.448.552-2.232.24-.784.48-1.52.72-2.208.24-.704.416-1.256.528-1.656.08-.256.192-.44.336-.552a.833.833 0 0 1 .48-.168c.176 0 .32.056.432.168a.48.48 0 0 1 .192.408c0 .144-.048.304-.144.48a7.15 7.15 0 0 0-.36.84l-.384 1.152a7.04 7.04 0 0 1-.336.864c.56-.544 1.064-.992 1.512-1.344.448-.352 1.04-.696 1.776-1.032.32-.16.736-.24 1.248-.24.368 0 .736.072 1.104.216.368.144.672.4.912.768s.36.888.36 1.56c0 .256-.144.384-.432.384a.613.613 0 0 1-.36-.144c-.112-.096-.208-.256-.288-.48-.112-.368-.288-.656-.528-.864-.224-.224-.52-.336-.888-.336-.224 0-.48.048-.768.144-.352.112-.792.328-1.32.648-.528.304-1.072.688-1.632 1.152-.544.464-1.048.992-1.512 1.584 0 .112-.024.24-.072.384a2.217 2.217 0 0 0-.048.48c0 .032.016.112.048.24s.048.256.048.384a.591.591 0 0 1-.216.456.639.639 0 0 1-.432.168Z" fill="#000"/><rect x=".5" y=".5" width="387" height="259" rx="4.5" stroke="#000"/></svg>